<?xml version="1.0" standalone="no"?><!DOCTYPE svg PUBLIC "-//W3C//DTD SVG 1.1//EN" "http://www.w3.org/Graphics/SVG/1.1/DTD/svg11.dtd"><svg t="1658715723017" class="icon" viewBox="0 0 1024 1024" version="1.1" xmlns="http://www.w3.org/2000/svg" p-id="12356" xmlns:xlink="http://www.w3.org/1999/xlink" width="48" height="48"><defs><style type="text/css">@font-face { font-family: feedback-iconfont; src: url("//at.alicdn.com/t/font_1031158_u69w8yhxdu.woff2?t=1630033759944") format("woff2"), url("//at.alicdn.com/t/font_1031158_u69w8yhxdu.woff?t=1630033759944") format("woff"), url("//at.alicdn.com/t/font_1031158_u69w8yhxdu.ttf?t=1630033759944") format("truetype"); }
</style></defs><path d="M456 456H260c-108.25 0-196-87.75-196-196S151.75 64 260 64s196 87.75 196 196v196zM764 456H568V260c0-108.25 87.75-196 196-196s196 87.75 196 196-87.75 196-196 196zM260 960c-108.25 0-196-87.75-196-196s87.75-196 196-196h196v196c0 108.25-87.75 196-196 196zM764 960c-108.25 0-196-87.75-196-196V568h196c108.25 0 196 87.75 196 196s-87.75 196-196 196z" fill="#dbdbdb" p-id="12357"></path></svg>